<?xml version="1.0" encoding="utf-8"?>
<!-- Generator: Adobe Illustrator 19.2.0, SVG Export Plug-In . SVG Version: 6.00 Build 0)  -->
<svg version="1.1" xmlns="http://www.w3.org/2000/svg" xmlns:xlink="http://www.w3.org/1999/xlink" x="0px" y="0px"
	 viewBox="0 0 715.3 186" style="enable-background:new 0 0 715.3 186;" xml:space="preserve">
<style type="text/css">
	.st0{display:none;fill:#FFFFFF;}
	.st1{fill:#52B0E7;}
	.st2{opacity:0.5;fill:#52B0E7;}
	.st3{font-family:'Silom';}
	.st4{font-size:83.2438px;}
	.st5{font-family:'NasalizationRg-Regular';}
	.st6{font-size:41.3554px;}
</style>
<g id="Camada_3">
	
		<ellipse transform="matrix(0.9663 -0.2576 0.2576 0.9663 -12.8958 176.1233)" class="st0" cx="665.8" cy="137.3" rx="1.3" ry="1.4"/>
	
		<ellipse transform="matrix(0.9663 -0.2576 0.2576 0.9663 -11.8296 175.0332)" class="st0" cx="662.2" cy="132.7" rx="1.3" ry="1.4"/>
	<path class="st1" d="M626.3,87.9l21.6-3.6c2.7-0.5,2.7-4.4,0-7l-16.3-15.4c-3.9-3.7-8.7-3.1-9.2,1.1l-2.2,18.3
		C619.8,84.6,623.4,88.4,626.3,87.9z"/>
</g>
<g id="Camada_5">
	<text transform="matrix(1 0 0 1 32 138.9404)"><tspan x="0" y="0" class="st2 st3 st4">it</tspan><tspan x="69.3" y="0" class="st1 st5 st4">Networking</tspan></text>
	<text transform="matrix(1 0 0 1 624.0003 135.9403)"><tspan x="0" y="0" class="st2 st3 st6">.b</tspan><tspan x="41.4" y="0" class="st1 st5 st6">r</tspan></text>
</g>
</svg>
