<svg xmlns="http://www.w3.org/2000/svg" viewBox="0 0 288 288"><defs><style>.cls-1{isolation:isolate;}.cls-2{fill:#fff;}.cls-3,.cls-5,.cls-6,.cls-7{fill:#606060;}.cls-3,.cls-6{fill-rule:evenodd;}.cls-3,.cls-4,.cls-7{mix-blend-mode:multiply;}</style></defs><title>socialMedia</title><g class="cls-1"><g id="Layer_1" data-name="Layer 1"><rect width="288" height="288"/><circle class="cls-2" cx="47.55" cy="44.04" r="19.46"/><path class="cls-3" d="M49.51,39c0.48,0,1,0,1.44,0h0.2V36.48c-0.26,0-.52-0.06-0.79-0.08-0.49,0-1,0-1.47,0A3.6,3.6,0,0,0,46.8,37a3.11,3.11,0,0,0-1.25,2.08,7.17,7.17,0,0,0-.09,1.07c0,0.56,0,1.12,0,1.68V42H43.08v2.78h2.37v7h2.89v-7H50.7L51.07,42H48.32s0-1.38,0-2A1,1,0,0,1,49.51,39Z" transform="translate(0)"/><circle class="cls-2" cx="241.2" cy="142.84" r="19.46"/><circle class="cls-2" cx="95.96" cy="44.04" r="19.46"/><path class="cls-3" d="M94,47.82a3,3,0,0,1-2.74-2,2.93,2.93,0,0,0,1.26,0l0,0a2.93,2.93,0,0,1-1.91-1.35,2.85,2.85,0,0,1-.43-1.56,2.89,2.89,0,0,0,1.31.36,3,3,0,0,1-1.21-1.78,2.92,2.92,0,0,1,.31-2.13,8.4,8.4,0,0,0,6.06,3.07c0-.12,0-0.22,0-0.32a2.86,2.86,0,0,1,.43-1.92,2.82,2.82,0,0,1,2-1.33,2.86,2.86,0,0,1,2.57.82,0.15,0.15,0,0,0,.16,0A6,6,0,0,0,103.5,39l0,0h0a3,3,0,0,1-1.26,1.6,5.66,5.66,0,0,0,1.64-.44h0l-0.34.44a5.76,5.76,0,0,1-1.07,1,0.1,0.1,0,0,0,0,.09,8.1,8.1,0,0,1-.05,1.3,8.67,8.67,0,0,1-.76,2.62,8.5,8.5,0,0,1-1.59,2.32,7.85,7.85,0,0,1-4,2.25,8.7,8.7,0,0,1-1.64.2,8.31,8.31,0,0,1-4.7-1.26l-0.07,0a5.93,5.93,0,0,0,2.94-.41A5.78,5.78,0,0,0,94,47.82Z" transform="translate(0)"/><circle class="cls-2" cx="144.37" cy="192.25" r="19.46"/><g class="cls-4"><path class="cls-5" d="M143.48,184.43h-0.89l-0.6,2.3-0.62-2.3h-0.93l0.56,1.64a14.38,14.38,0,0,1,.54,1.86v2.37h0.88v-2.37Zm2.35,4.45v-1.53a1.71,1.71,0,0,0-.25-1,1.18,1.18,0,0,0-1.85,0,1.7,1.7,0,0,0-.25,1v1.53a1.71,1.71,0,0,0,.25,1,1.18,1.18,0,0,0,1.85,0A1.71,1.71,0,0,0,145.82,188.88ZM145,189c0,0.4-.12.61-0.38,0.61s-0.38-.2-0.38-0.61v-1.84c0-.4.12-0.61,0.38-0.61s0.38,0.2.38,0.61V189Zm3.72,1.26v-4.37H148v3.34a0.69,0.69,0,0,1-.5.37,0.18,0.18,0,0,1-.18-0.18,1.72,1.72,0,0,1,0-.31v-3.22h-0.79v3.46a2.23,2.23,0,0,0,.07.65,0.49,0.49,0,0,0,.51.33,1.27,1.27,0,0,0,.9-0.54v0.48h0.79Z" transform="translate(0)"/><path class="cls-5" d="M146.27,194.7a0.56,0.56,0,0,0-.39.19v2.64a0.56,0.56,0,0,0,.39.19c0.23,0,.34-0.19.34-0.58v-1.85C146.61,194.9,146.49,194.7,146.27,194.7Z" transform="translate(0)"/><path class="cls-5" d="M149.18,194.7q-0.39,0-.39.6v0.4h0.78v-0.4C149.57,194.9,149.44,194.7,149.18,194.7Z" transform="translate(0)"/><path class="cls-5" d="M151.09,192.5a1.63,1.63,0,0,0-1.4-1.27,43.51,43.51,0,0,0-4.86-.18,43.49,43.49,0,0,0-4.86.18,1.63,1.63,0,0,0-1.4,1.27,20.79,20.79,0,0,0,0,6.13,1.64,1.64,0,0,0,1.4,1.28,44.24,44.24,0,0,0,4.86.18,44.24,44.24,0,0,0,4.86-.18,1.64,1.64,0,0,0,1.4-1.28A20.92,20.92,0,0,0,151.09,192.5Zm-9,.88h-0.94v5h-0.87v-5h-0.92v-0.82H142v0.82Zm2.37,5h-0.78V197.9a1.26,1.26,0,0,1-.9.53,0.48,0.48,0,0,1-.5-0.32,2.19,2.19,0,0,1-.07-0.64V194h0.78v3.18a2.22,2.22,0,0,0,0,.3,0.18,0.18,0,0,0,.18.18,0.69,0.69,0,0,0,.5-0.37V194h0.78v4.33Zm3-1.3a3.44,3.44,0,0,1-.08.87,0.62,0.62,0,0,1-.63.49,1.06,1.06,0,0,1-.81-0.48v0.42h-0.78v-5.81h0.78v1.9a1.06,1.06,0,0,1,.81-0.47,0.62,0.62,0,0,1,.63.49,3.33,3.33,0,0,1,.08.87v1.72Zm3-.72h-1.57v0.77c0,0.4.13,0.6,0.4,0.6a0.34,0.34,0,0,0,.35-0.31,4.86,4.86,0,0,0,0-.53h0.8V197c0,0.25,0,.43,0,0.51a1.13,1.13,0,0,1-.18.47,1.08,1.08,0,0,1-.95.47,1.12,1.12,0,0,1-.95-0.44,1.67,1.67,0,0,1-.25-1v-1.52a1.68,1.68,0,0,1,.24-1,1.11,1.11,0,0,1,.94-0.44,1.09,1.09,0,0,1,.92.44,1.71,1.71,0,0,1,.24,1v0.9Z" transform="translate(0)"/></g><circle class="cls-2" cx="144.37" cy="44.04" r="19.46"/><g class="cls-4"><path class="cls-5" d="M141.79,43.42s0,0.07,0,.1c0,0.74,0,2.34,0,2.34H145a2.76,2.76,0,0,1-1.19,1.82,3.47,3.47,0,0,1-1.76.57,3.52,3.52,0,0,1-1.31-.15,3.65,3.65,0,0,1-2.5-3.15,3.5,3.5,0,0,1,.07-1.1,3.58,3.58,0,0,1,4-2.79,3.26,3.26,0,0,1,1.78.86l1.76-1.76a7.41,7.41,0,0,0-1.07-.79,5.77,5.77,0,0,0-2.87-.78l-0.58,0a4.79,4.79,0,0,0-1,.16,6.07,6.07,0,0,0-4.59,5.53,5.73,5.73,0,0,0,.13,1.63,6,6,0,0,0,2.37,3.62,5.91,5.91,0,0,0,3.23,1.15,6.46,6.46,0,0,0,2-.2,5.28,5.28,0,0,0,3-2,6.5,6.5,0,0,0,1-5.11h-5.7Z" transform="translate(0)"/><polygon class="cls-5" points="154.82 43.5 152.77 43.5 152.77 41.45 152.77 41.38 152.71 41.38 151.17 41.38 151.11 41.38 151.11 41.45 151.11 43.5 149.06 43.5 149 43.5 149 43.56 149 45.09 149 45.15 149.06 45.15 151.11 45.15 151.11 47.2 151.11 47.27 151.17 47.27 152.71 47.27 152.77 47.27 152.77 47.2 152.77 45.15 154.82 45.15 154.88 45.15 154.88 45.09 154.88 43.56 154.88 43.5 154.82 43.5"/></g><circle class="cls-2" cx="192.79" cy="44.04" r="19.46"/><g class="cls-4"><path class="cls-5" d="M187.21,41.42H190v9.07h-2.82V41.42Zm1.41-4.51A1.63,1.63,0,1,1,187,38.55a1.64,1.64,0,0,1,1.64-1.63" transform="translate(0)"/><path class="cls-5" d="M191.81,41.42h2.7v1.24h0a3,3,0,0,1,2.67-1.47c2.85,0,3.38,1.88,3.38,4.32v5h-2.82V46.08c0-1.05,0-2.4-1.47-2.4s-1.69,1.14-1.69,2.33v4.49h-2.82V41.42Z" transform="translate(0)"/></g><circle class="cls-2" cx="192.79" cy="192.25" r="19.46"/><g class="cls-4"><path class="cls-6" d="M185.36,197.23V187h5a3.9,3.9,0,0,1,1.58.31,2.31,2.31,0,0,1,1.42,1.89,2.85,2.85,0,0,1-.12,1.39,1.93,1.93,0,0,1-.9,1l-0.19.11,0.09,0a2.22,2.22,0,0,1,1.43,1.75,3.08,3.08,0,0,1-.25,2,2.85,2.85,0,0,1-2.19,1.62,7.77,7.77,0,0,1-1.3.11h-4.59Zm2.36-1.78h2.21a3.46,3.46,0,0,0,.65-0.07,1.15,1.15,0,0,0,1-.93,2.1,2.1,0,0,0,0-.57,1.08,1.08,0,0,0-.75-1,2.23,2.23,0,0,0-.74-0.12h-2.37v2.72Zm0-4.42h2.23a2.05,2.05,0,0,0,1-.21,0.83,0.83,0,0,0,.43-0.54,1.58,1.58,0,0,0,0-.62,0.85,0.85,0,0,0-.65-0.76,3.84,3.84,0,0,0-1-.12h-2V191Z" transform="translate(0)"/><path class="cls-6" d="M201.78,193.79h-5.33c0,0.11,0,.21,0,0.31a1.94,1.94,0,0,0,.17.6,1.56,1.56,0,0,0,1.18.87,2.21,2.21,0,0,0,.89,0,1.41,1.41,0,0,0,1-.74,0.1,0.1,0,0,1,.1-0.06h1.9c0,0.1,0,.2-0.07.29a2.61,2.61,0,0,1-.58,1,3.29,3.29,0,0,1-2.06,1.08,4.46,4.46,0,0,1-1.91-.1,3.72,3.72,0,0,1-1.7-1,2.87,2.87,0,0,1-.71-1.42,5.48,5.48,0,0,1,.08-2.8,3.19,3.19,0,0,1,2.64-2.31,4.21,4.21,0,0,1,2.42.24,3.05,3.05,0,0,1,1.58,1.52,3.58,3.58,0,0,1,.38,1.42c0,0.36,0,.73,0,1.1C201.79,193.75,201.78,193.76,201.78,193.79Zm-2-1.27a0.14,0.14,0,0,0,0,0c0-.07,0-0.14,0-0.21a1.46,1.46,0,0,0-.93-1.18A1.86,1.86,0,0,0,198,191a1.43,1.43,0,0,0-1.29.89,3.85,3.85,0,0,0-.15.47,1.57,1.57,0,0,0,0,.19h3.29Z" transform="translate(0)"/><path class="cls-6" d="M196.08,188.61v-1.18h4.11v1.18h-4.11Z" transform="translate(0)"/></g><circle class="cls-2" cx="192.79" cy="93.44" r="19.46"/><path class="cls-7" d="M192.9,85.58a7.66,7.66,0,1,0,7.66,7.66A7.67,7.67,0,0,0,192.9,85.58Zm4.94,3.74a6.29,6.29,0,0,1,1.36,3.54,11.5,11.5,0,0,0-4.31-.08q-0.24-.55-0.48-1.05A9.23,9.23,0,0,0,197.84,89.32Zm-0.95-1a7.83,7.83,0,0,1-3.11,2.18l-0.39-.68a21.55,21.55,0,0,0-2-2.76A6.31,6.31,0,0,1,196.89,88.36Zm-6.83-.76A19.88,19.88,0,0,1,192.49,91a20.32,20.32,0,0,1-5.71.69A6.34,6.34,0,0,1,190.06,87.6Zm-3.48,5.64c0-.07,0-0.15,0-0.22h0.58a22.79,22.79,0,0,0,3.72-.3,17,17,0,0,0,2.25-.53c0.15,0.29.29,0.6,0.43,0.92a9.78,9.78,0,0,0-3.08,1.68,11.09,11.09,0,0,0-2.34,2.6A6.3,6.3,0,0,1,186.58,93.24Zm2.57,5.08a9.79,9.79,0,0,1,2.18-2.48,8.43,8.43,0,0,1,2.73-1.48,20.9,20.9,0,0,1,1.14,4.75A6.31,6.31,0,0,1,189.16,98.32Zm7.32,0.11a22.44,22.44,0,0,0-1.09-4.38,10.42,10.42,0,0,1,3.74.17A6.31,6.31,0,0,1,196.48,98.44Z" transform="translate(0)"/><circle class="cls-2" cx="241.2" cy="44.04" r="19.46"/><path class="cls-3" d="M240.49,47l0,0.12a13,13,0,0,1-1.21,3.75,11.39,11.39,0,0,1-.94,1.4,0.16,0.16,0,0,1-.15.1,0.15,0.15,0,0,1-.1-0.16,12,12,0,0,1-.12-2c0-.89.14-1.19,1.28-6a0.34,0.34,0,0,0,0-.2,3.39,3.39,0,0,1-.09-2.25c0.52-1.64,2.38-1.77,2.71-.41,0.2,0.84-.33,1.94-0.74,3.56-0.34,1.34,1.24,2.29,2.58,1.31s1.72-3.06,1.63-4.59c-0.18-3-3.52-3.71-5.65-2.73-2.43,1.12-3,4.14-1.89,5.52a0.52,0.52,0,0,1,.2.46c-0.07.28-.13,0.55-0.21,0.83a0.29,0.29,0,0,1-.43.19,2.48,2.48,0,0,1-1-.76,4.81,4.81,0,0,1,0-5.37A6.45,6.45,0,0,1,242.55,37a5.27,5.27,0,0,1,4.85,4.36,7.25,7.25,0,0,1-1.33,5.1c-1.58,2-4.14,2.09-5.32.89A3.84,3.84,0,0,1,240.49,47Z" transform="translate(0)"/><circle class="cls-2" cx="241.2" cy="192.25" r="19.46"/><g class="cls-4"><polygon class="cls-5" points="237.96 185.08 233.38 188.06 236.53 190.6 241.16 187.75 237.96 185.08"/><polygon class="cls-5" points="248.9 188.07 244.33 185.1 241.16 187.75 245.76 190.6 248.9 188.07"/><polygon class="cls-5" points="241.16 193.44 244.33 196.11 248.9 193.13 245.76 190.6 241.16 193.44"/><polygon class="cls-5" points="233.38 193.14 237.96 196.11 241.16 193.44 236.53 190.6 233.38 193.14"/><polygon class="cls-5" points="241.16 194.02 237.96 196.69 236.59 195.81 236.59 196.8 241.16 199.54 245.73 196.79 245.73 195.81 244.36 196.69 241.16 194.02"/></g><circle class="cls-2" cx="95.96" cy="142.84" r="19.46"/><g class="cls-4"><path class="cls-6" d="M93.68,149.58a3.75,3.75,0,0,1-1.47-.34,4.24,4.24,0,0,1-2.57-3.64c0-.76,0-4.62,0-5.26a4.26,4.26,0,0,1,3.14-4.06,16.24,16.24,0,0,1,4.78,0,4.38,4.38,0,0,1,2.87,2.8c0.27,1.07.09,2,.77,2.07s0.94,0.06,1.31.1a0.66,0.66,0,0,1,.57.7c0,3.81,0,4.25-.39,5.09a4.27,4.27,0,0,1-3.52,2.51H93.68Zm5-3.5a0.8,0.8,0,1,0,0-1.6H94a0.8,0.8,0,1,0-.09,1.6h4.71Zm-2.25-4.86a0.81,0.81,0,1,0-.24-1.59c-0.24,0-2.06,0-2.29,0a0.8,0.8,0,0,0,.08,1.6S96.22,141.24,96.42,141.21Z" transform="translate(0)"/></g><circle class="cls-2" cx="95.96" cy="93.44" r="19.46"/><path class="cls-3" d="M102.57,94.94a6.8,6.8,0,0,0,.09-1.09,6.71,6.71,0,0,0-6.71-6.71,6.8,6.8,0,0,0-1.08.09,3.88,3.88,0,0,0-5.49,5.22,6.72,6.72,0,0,0,6.57,8.12,6.87,6.87,0,0,0,1.41-.15A3.88,3.88,0,0,0,102.57,94.94ZM98,97.7a5.66,5.66,0,0,1-3.29.2,2.49,2.49,0,0,1-2.1-1.74,0.83,0.83,0,0,1,1.51-.63L94.49,96a2,2,0,0,0,2.91.09,0.79,0.79,0,0,0,0-1c-0.24-.31-0.52-0.3-2.83-0.89A2.28,2.28,0,0,1,93,90.69a3.25,3.25,0,0,1,2.52-1.18c1.64-.13,3.45.65,3.62,1.73a0.74,0.74,0,0,1-.6.88,1.13,1.13,0,0,1-1.18-.62,2.18,2.18,0,0,0-2.59-.27,0.73,0.73,0,0,0-.07,1.14c0.58,0.46,2.47.59,3.39,1a2.15,2.15,0,0,1,1.4,2.07A2.34,2.34,0,0,1,98,97.7Z" transform="translate(0)"/><circle class="cls-2" cx="144.37" cy="142.84" r="19.46"/><path class="cls-5" d="M151,139.38a3.56,3.56,0,0,0-1.09-2.29,3.72,3.72,0,0,0-2.46-1,48.39,48.39,0,0,0-6.64.07,3.39,3.39,0,0,0-2.9,2.61,37.47,37.47,0,0,0-.07,7.53,3.4,3.4,0,0,0,2.7,2.93,39.92,39.92,0,0,0,7.43,0,3.4,3.4,0,0,0,2.94-2.68A42.1,42.1,0,0,0,151,139.38Zm-1.23,6.71a2.27,2.27,0,0,1-2.14,2,40,40,0,0,1-6.92-.1,2.2,2.2,0,0,1-1.67-1.9,44.93,44.93,0,0,1,0-6.77,2.27,2.27,0,0,1,2.13-2,47.15,47.15,0,0,1,6.61,0,2.27,2.27,0,0,1,2,2.14A48.23,48.23,0,0,1,149.73,146.09Zm-5.36-6.81a3.44,3.44,0,1,0,3.44,3.44A3.44,3.44,0,0,0,144.37,139.28Zm0,5.66a2.23,2.23,0,1,1,2.25-2.22A2.22,2.22,0,0,1,144.34,144.95Zm4.4-5.79a0.81,0.81,0,1,1-.8-0.81A0.8,0.8,0,0,1,148.75,139.16Z" transform="translate(0)"/><circle class="cls-2" cx="47.55" cy="192.25" r="19.46"/><path class="cls-7" d="M54,190.18c-0.13,2.75-5.14,9.72-8,9.72q-1.28,0-2.17-2.37c-1.13-4.15-1.63-6.7-2.6-6.7a4.5,4.5,0,0,0-1.15.69l-0.69-.89c1.84-1.61,3.32-3.13,4.3-3.22q1.71-.17,2.1,2.33c0.34,2.14.83,5.58,1.68,5.58,0.66,0,2.28-2.67,2.37-3.65,0.15-1.38-1-1.46-2.07-1q1.08-3.52,4.14-3.42,2.27,0.06,2.14,2.92h0Z" transform="translate(0)"/><circle class="cls-2" cx="144.37" cy="93.44" r="19.46"/><g class="cls-4"><path class="cls-6" d="M137.45,100.72l0.23-.86c0.24-.88.49-1.75,0.71-2.63a0.64,0.64,0,0,0,0-.42,7.23,7.23,0,1,1,3.12,3,0.73,0.73,0,0,0-.45,0C139.12,100.28,137.84,100.64,137.45,100.72Zm1.69-1.66c0.72-.19,1.38-0.36,2-0.54a0.59,0.59,0,0,1,.49.07,5.93,5.93,0,0,0,4,.76,6,6,0,1,0-6.23-3.06,1.26,1.26,0,0,1,.14,1.15C139.41,97.95,139.3,98.48,139.14,99.06Z" transform="translate(0)"/><path class="cls-6" d="M146.62,96.84c-1.41-.05-3.66-1.17-5.2-3.84a2.17,2.17,0,0,1,.33-2.78,1,1,0,0,1,.93-0.14,0.38,0.38,0,0,1,.2.22c0.21,0.47.41,0.94,0.59,1.41a1,1,0,0,1-.45.91,0.31,0.31,0,0,0,0,.41,4.93,4.93,0,0,0,2.51,2.16,0.3,0.3,0,0,0,.38-0.1c0.58-.71.64-0.91,0.94-0.77,1.46,0.7,1.57.73,1.58,0.89A1.59,1.59,0,0,1,146.62,96.84Z" transform="translate(0)"/></g><path class="cls-3" d="M245.47,146.77h0s-2.2,1.4-3.61.3c-0.54-.42-0.5-1-0.5-3.28,0-.4,0-2.57,0-2.79,0.06,0-.2,0,3.46,0v-2.4c-0.82,0-3.36,0-3.47,0,0-4.12,0-3.73,0-3.83h-2.15c-0.32,2-.87,3.39-3.07,4.06V141h1.65c0,0.37,0-.61,0,5.32a2.92,2.92,0,0,0,1.12,2.72,6,6,0,0,0,4.9.71,8.6,8.6,0,0,0,1.66-.62C245.48,149,245.48,149.32,245.47,146.77Z" transform="translate(0)"/><circle class="cls-2" cx="192.79" cy="142.84" r="19.46"/><g class="cls-4"><path class="cls-6" d="M198.94,143.54a3.15,3.15,0,0,1-3.95-3.1c-0.12-2.22,1.41-2.21,1.75-1.32a4.08,4.08,0,0,1-.07,2.42,0.23,0.23,0,0,0,0,.14,1.76,1.76,0,0,0,2,.54,6.09,6.09,0,0,0,.45-2c0.15-2.79-1.52-4-3.58-3.72a3.1,3.1,0,0,0-2.68,2.57,5.79,5.79,0,0,0,.51,3.79,4.57,4.57,0,0,0,1.88,2,0.08,0.08,0,0,1,0,.12,13.64,13.64,0,0,1-2.32,3.29c-0.08.08-.08,0.08-0.16,0-2.33-2.82-3.15-5.94-3.62-9.49h-2.4c0.16,0.73,1,8.33,4.95,11.39a2.4,2.4,0,0,0,.65.38,1.22,1.22,0,0,0,1.11-.16,14.27,14.27,0,0,0,3.92-4.9,0.14,0.14,0,0,1,.13-0.09,10.22,10.22,0,0,0,1.37-.15v-1.65Z" transform="translate(0)"/></g><circle class="cls-2" cx="95.96" cy="192.25" r="19.46"/><g class="cls-4"><circle class="cls-5" cx="92.01" cy="192.75" r="3.24"/><circle class="cls-5" cx="100.36" cy="192.75" r="3.24"/></g><circle class="cls-2" cx="47.55" cy="93.44" r="19.46"/><path class="cls-3" d="M42,98.88a1.86,1.86,0,0,1-1.23-1.19c-0.53-1.46-.69-7.57.33-8.77a2,2,0,0,1,1.34-.71c2.75-.3,11.27-0.25,12.25.1a1.92,1.92,0,0,1,1.2,1.16c0.58,1.51.6,7-.08,8.46a1.88,1.88,0,0,1-.86.87C53.95,99.33,43.37,99.32,42,98.88ZM46.39,96l5-2.57-5-2.59V96Z" transform="translate(0)"/><circle class="cls-2" cx="241.2" cy="93.44" r="19.46"/><g class="cls-4"><circle class="cls-5" cx="237.53" cy="97.4" r="1.88"/><path class="cls-5" d="M235.65,92.89A6.38,6.38,0,0,1,242,99.3h2.62a9,9,0,0,0-9-9v2.62Z" transform="translate(0)"/><path class="cls-5" d="M235.65,88.24a11,11,0,0,1,11,11.06h2.62a13.66,13.66,0,0,0-13.62-13.68v2.62Z" transform="translate(0)"/></g><circle class="cls-2" cx="47.55" cy="142.84" r="19.46"/><polygon class="cls-7" points="52.18 136.35 49.67 136.35 48.25 139.03 43.88 139.03 43.88 142.38 46.5 142.38 43.88 147.34 43.88 149.68 46.43 149.68 47.84 147 52.18 147 52.18 143.66 49.59 143.66 52.18 138.74 52.18 136.35"/><circle class="cls-2" cx="144.37" cy="241.65" r="19.46"/><path id="rect3003" class="cls-7" d="M144.67,235.56a3.35,3.35,0,0,0-3.35,3.35v4.77a0.79,0.79,0,1,1-1.59,0v-2.12h-2.56v2.21a3.35,3.35,0,1,0,6.71,0v-4.85a0.79,0.79,0,0,1,1.59,0v1l1.06,0.49,1.5-.49v-1A3.35,3.35,0,0,0,144.67,235.56Zm0.79,6v2.16a3.35,3.35,0,1,0,6.71,0v-2.12h-2.56v2.12a0.79,0.79,0,0,1-1.59,0V241.6l-1.5.49Z" transform="translate(0)"/><circle class="cls-2" cx="95.96" cy="241.65" r="19.46"/><g class="cls-4"><polygon class="cls-5" points="94.67 241.73 94.67 236.54 89.34 237.29 89.34 241.73 94.67 241.73"/><polygon class="cls-5" points="89.34 242.28 89.34 246.73 94.67 247.47 94.67 242.28 89.34 242.28"/><polygon class="cls-5" points="95.3 242.32 95.3 247.56 102.37 248.54 102.37 242.32 95.3 242.32"/><polygon class="cls-5" points="102.37 241.68 102.37 235.45 95.3 236.45 95.3 241.68 102.37 241.68"/></g><circle class="cls-2" cx="47.55" cy="241.65" r="19.46"/><g class="cls-4"><path class="cls-6" d="M53.42,244.53c-0.56,1.5-2.14,4-3.7,3.72-1.08-.2-1.55-0.77-2.76-0.54-0.85.16-1.14,0.49-1.83,0.55a2.81,2.81,0,0,1-2.4-1.5,10.52,10.52,0,0,1-1.07-1.92,7.85,7.85,0,0,1-.54-4.87,3.8,3.8,0,0,1,2.5-2.71,4.54,4.54,0,0,1,3.37.38,2.56,2.56,0,0,0,1.65-.33,4,4,0,0,1,4.45,1.19s0,0,0,0c-2.28,1.63-2.21,4.44.4,5.79C53.5,244.36,53.49,244.36,53.42,244.53Z" transform="translate(0)"/><path class="cls-6" d="M50.13,233.73a4,4,0,0,1,0,.6,3.16,3.16,0,0,1-3,2.93h0a3.17,3.17,0,0,1,0-.51,3.42,3.42,0,0,1,2.71-3Z" transform="translate(0)"/></g><circle class="cls-2" cx="192.79" cy="241.65" r="19.46"/><path class="cls-3" d="M189.26,242.47c0-.32,0-0.64.08-1a9.51,9.51,0,0,1,3.41-6.28,4.22,4.22,0,0,1,2.94-1.31c0.7-.11,1.33-0.13,1.58.4a15.11,15.11,0,0,1,.79,1.84c2.81,9.05-3,12.94-7.45,11.27a6,6,0,0,1-2.39-9.81c0.19-.21.38,0.13,0.36,0.28-0.07.5-.85,3.27,0.61,4.62Z" transform="translate(0)"/><circle class="cls-2" cx="241.2" cy="241.65" r="19.46"/><g class="cls-4"><polygon class="cls-5" points="241.13 238.84 235.68 248.28 232.91 243.5 238.38 234.06 241.13 238.84"/><polygon class="cls-5" points="249.85 243.21 244.32 243.22 238.88 233.77 244.41 233.77 249.85 243.21"/><polygon class="cls-5" points="249.86 243.79 247.1 248.57 236.18 248.56 238.94 243.79 249.86 243.79"/></g></g></g></svg>