<?xml version="1.0" encoding="utf-8"?>
<!-- Generator: Adobe Illustrator 19.2.0, SVG Export Plug-In . SVG Version: 6.00 Build 0)  -->
<svg version="1.2" baseProfile="tiny" xmlns="http://www.w3.org/2000/svg" xmlns:xlink="http://www.w3.org/1999/xlink" x="0px"
	 y="0px" viewBox="122 24.1 94.6 94.6" xml:space="preserve">
<g id="Camada_5">
</g>
<g id="linha">
</g>
<g id="texto">
</g>
<g id="brasil">
	<circle fill="#AAC165" cx="169.3" cy="71.4" r="47.3"/>
</g>
<g id="Camada_8">
	<path fill="#FFFFFF" d="M146.5,55.1h3v21.6h-3V55.1z"/>
	<path fill="#FFFFFF" d="M169.3,55.1v2.6h-6.8v19h-3v-19h-6.8v-2.6H169.3z"/>
	<path fill="#7F7F7F" d="M175.7,76.6H172V59.8c0-1.4,0.4-2.5,1.2-3.3c0.8-0.8,2-1.3,3.6-1.3c1.5,0,2.6,0.3,3.3,1
		c0.8,0.7,1.4,1.6,1.8,2.8l6.1,13.4c0.1,0.2,0.3,0.5,0.5,0.6c0.2,0.2,0.5,0.2,0.8,0.2c0.4,0,0.7-0.1,0.9-0.3
		c0.2-0.2,0.3-0.5,0.3-0.9V55.6h3.7v16.8c0,1.4-0.4,2.5-1.2,3.3c-0.8,0.8-2,1.3-3.6,1.3c-0.7,0-1.4-0.1-1.9-0.3
		c-0.6-0.2-1-0.4-1.4-0.8s-0.8-0.8-1-1.2c-0.3-0.5-0.5-1-0.7-1.6l-6.1-13.4c-0.3-0.6-0.7-0.9-1.3-0.9c-0.4,0-0.7,0.1-0.9,0.3
		c-0.2,0.2-0.3,0.5-0.3,0.9V76.6z"/>
	<text transform="matrix(1 0 0 1 148.7744 92.6371)" fill="#FFFFFF" font-family="'AvenirNext-Regular'" font-size="12.9135px">I</text>
	<text transform="matrix(1 0 0 1 152.1319 92.6371)" fill="#FFFFFF" font-family="'AvenirNext-Regular'" font-size="12.9135px">r</text>
	<text transform="matrix(1 0 0 1 156.5484 92.6371)" fill="#FFFFFF" font-family="'AvenirNext-Regular'" font-size="12.9135px">e</text>
	<text transform="matrix(1 0 0 1 163.9346 92.6371)" fill="#FFFFFF" font-family="'AvenirNext-Regular'" font-size="12.9135px">l</text>
	<text transform="matrix(1 0 0 1 167.189 92.6371)" fill="#FFFFFF" font-family="'AvenirNext-Regular'" font-size="12.9135px">a</text>
	<text transform="matrix(1 0 0 1 174.0845 92.6371)" fill="#FFFFFF" font-family="'AvenirNext-Regular'" font-size="12.9135px">n</text>
	<text transform="matrix(1 0 0 1 181.5869 92.6371)" fill="#FFFFFF" font-family="'AvenirNext-Regular'" font-size="12.9135px">d</text>
</g>
</svg>
