<?xml version="1.0" encoding="utf-8"?>
<!-- Generator: Adobe Illustrator 19.2.0, SVG Export Plug-In . SVG Version: 6.00 Build 0)  -->
<svg version="1.2" baseProfile="tiny" id="Camada_8"
	 xmlns="http://www.w3.org/2000/svg" xmlns:xlink="http://www.w3.org/1999/xlink" x="0px" y="0px" viewBox="126.4 51.9 84.7 43.3"
	 xml:space="preserve">
<path fill="#FFFFFF" d="M145.5,55.1h3v21.6h-3V55.1z"/>
<path fill="#FFFFFF" d="M168.3,55.1v2.6h-6.8v19h-3v-19h-6.8v-2.6H168.3z"/>
<path fill="#7F7F7F" d="M174.7,76.6H171V59.8c0-1.4,0.4-2.5,1.2-3.3c0.8-0.8,2-1.3,3.6-1.3c1.5,0,2.6,0.3,3.3,1
	c0.8,0.7,1.4,1.6,1.8,2.8l6.1,13.4c0.1,0.2,0.3,0.5,0.5,0.6c0.2,0.2,0.5,0.2,0.8,0.2c0.4,0,0.7-0.1,0.9-0.3c0.2-0.2,0.3-0.5,0.3-0.9
	V55.6h3.7v16.8c0,1.4-0.4,2.5-1.2,3.3c-0.8,0.8-2,1.3-3.6,1.3c-0.7,0-1.4-0.1-1.9-0.3c-0.6-0.2-1-0.4-1.4-0.8
	c-0.4-0.3-0.8-0.8-1-1.2c-0.3-0.5-0.5-1-0.7-1.6l-6.1-13.4c-0.3-0.6-0.7-0.9-1.3-0.9c-0.4,0-0.7,0.1-0.9,0.3
	c-0.2,0.2-0.3,0.5-0.3,0.9V76.6z"/>
<text transform="matrix(1 0 0 1 152.6117 92.6371)" fill="#FFFFFF" font-family="'AvenirNext-Regular'" font-size="12.9135px">B</text>
<text transform="matrix(1 0 0 1 160.8246 92.6371)" fill="#FFFFFF" font-family="'AvenirNext-Regular'" font-size="12.9135px">r</text>
<text transform="matrix(1 0 0 1 165.3182 92.6371)" fill="#FFFFFF" font-family="'AvenirNext-Regular'" font-size="12.9135px">a</text>
<text transform="matrix(1 0 0 1 172.2137 92.6371)" fill="#FFFFFF" font-family="'AvenirNext-Regular'" font-size="12.9135px">z</text>
<text transform="matrix(1 0 0 1 177.9217 92.6371)" fill="#FFFFFF" font-family="'AvenirNext-Regular'" font-size="12.9135px">i</text>
<text transform="matrix(1 0 0 1 181.1498 92.6371)" fill="#FFFFFF" font-family="'AvenirNext-Regular'" font-size="12.9135px">l</text>
</svg>
