<?xml version="1.0" encoding="utf-8"?>
<!-- Generator: Adobe Illustrator 19.2.0, SVG Export Plug-In . SVG Version: 6.00 Build 0)  -->
<svg version="1.2" baseProfile="tiny" xmlns="http://www.w3.org/2000/svg" xmlns:xlink="http://www.w3.org/1999/xlink" x="0px"
	 y="0px" viewBox="0 0 342.5 328.1" xml:space="preserve">
<g id="Camada_1" display="none">
	<g display="inline">
		<g>
			<path fill="#AAC165" d="M219.6,154.4c-42.6,0-77.2-34.6-77.2-77.2c0-42.6,34.6-77.2,77.2-77.2c42.6,0,77.2,34.6,77.2,77.2
				C296.8,119.7,262.2,154.4,219.6,154.4z M219.6,13.7c-35,0-63.5,28.5-63.5,63.5c0,35,28.5,63.5,63.5,63.5
				c35,0,63.5-28.5,63.5-63.5C283.1,42.2,254.6,13.7,219.6,13.7z"/>
		</g>
		<g>
			<path fill="#AAC165" d="M335.7,328.1H103.6c-3.8,0-6.8-3.1-6.8-6.8V214.5c0-36.2,29.5-65.7,65.7-65.7h114.4
				c36.2,0,65.7,29.5,65.7,65.7v106.8C342.5,325,339.4,328.1,335.7,328.1z M110.4,314.4h218.4v-100c0-28.7-23.3-52-52-52H162.4
				c-28.7,0-52,23.3-52,52V314.4z"/>
		</g>
		<g>
			<path fill="#AAC165" d="M143.9,328.1c-3.8,0-6.8-3.1-6.8-6.8V219.2c0-3.8,3.1-6.8,6.8-6.8s6.8,3.1,6.8,6.8v102.1
				C150.7,325,147.7,328.1,143.9,328.1z"/>
		</g>
		<g>
			<path fill="#AAC165" d="M295.3,328.1c-3.8,0-6.8-3.1-6.8-6.8V219.2c0-3.8,3.1-6.8,6.8-6.8c3.8,0,6.8,3.1,6.8,6.8v102.1
				C302.2,325,299.1,328.1,295.3,328.1z"/>
		</g>
	</g>
</g>
<g id="Camada_2">
	<g>
		<g>
			<path fill="#AAC165" d="M298.5,245.6H74.3c-24.3,0-44-19.7-44-44V44c0-24.3,19.7-44,44-44h224.2c24.3,0,44,19.7,44,44v157.6
				C342.5,225.9,322.8,245.6,298.5,245.6z M74.3,12.6C57,12.6,42.9,26.7,42.9,44v157.6c0,17.3,14.1,31.4,31.4,31.4h224.2
				c17.3,0,31.4-14.1,31.4-31.4V44c0-17.3-14.1-31.4-31.4-31.4H74.3z"/>
		</g>
		<g>
			<path fill="#AAC165" d="M308.5,213.3H69.7c-3.5,0-6.3-2.8-6.3-6.3V34.5c0-3.5,2.8-6.3,6.3-6.3h238.8c3.5,0,6.3,2.8,6.3,6.3V207
				C314.8,210.5,312,213.3,308.5,213.3z M76,200.8h226.2v-160H76V200.8z"/>
		</g>
		<g>
			<path fill="#AAC165" d="M235.1,301.4h-80.8c-3.5,0-6.3-2.8-6.3-6.3v-55.8c0-3.5,2.8-6.3,6.3-6.3h80.8c3.5,0,6.3,2.8,6.3,6.3v55.8
				C241.4,298.6,238.6,301.4,235.1,301.4z M160.6,288.9h68.2v-43.3h-68.2V288.9z"/>
		</g>
		<g>
			<path fill="#AAC165" d="M256.5,329.6H132.9c-3.5,0-6.3-2.8-6.3-6.3v-28.1c0-3.5,2.8-6.3,6.3-6.3h123.5c3.5,0,6.3,2.8,6.3,6.3
				v28.1C262.8,326.8,260,329.6,256.5,329.6z M139.2,317h111v-15.6h-111V317z"/>
		</g>
	</g>
</g>
<g id="Camada_3" display="none">
	<g display="inline">
		<g>
			<path fill="#AAC165" d="M334.2,325.6H8.3c-4.6,0-8.3-3.7-8.3-8.3V65.4c0-4.6,3.7-8.3,8.3-8.3h325.8c4.6,0,8.3,3.7,8.3,8.3v251.9
				C342.5,321.9,338.8,325.6,334.2,325.6z M16.7,309h309.2V73.8H16.7V309z"/>
		</g>
		<g>
			<path fill="#AAC165" d="M334.2,180.1H8.3c-4.6,0-8.3-3.7-8.3-8.3V65.4c0-4.6,3.7-8.3,8.3-8.3h325.8c4.6,0,8.3,3.7,8.3,8.3v106.3
				C342.5,176.4,338.8,180.1,334.2,180.1z M16.7,163.5h309.2V73.8H16.7V163.5z"/>
		</g>
		<g>
			<path fill="#AAC165" d="M231,73.8H111.5c-4.6,0-8.3-3.7-8.3-8.3V9.9c0-4.6,3.7-8.3,8.3-8.3H231c4.6,0,8.3,3.7,8.3,8.3v55.6
				C239.3,70,235.6,73.8,231,73.8z M119.8,57.1h102.9V18.2H119.8V57.1z"/>
		</g>
		<g>
			<path fill="#FDFCFA" d="M171.2,211.7L171.2,211.7c-10.2,0-18.5-8.3-18.5-18.5v-42.8c0-10.2,8.3-18.5,18.5-18.5l0,0
				c10.2,0,18.5,8.3,18.5,18.5v42.8C189.8,203.4,181.4,211.7,171.2,211.7z"/>
			<path fill="#AAC165" d="M171.2,220c-14.8,0-26.9-12.1-26.9-26.9v-42.8c0-14.8,12-26.9,26.9-26.9c14.8,0,26.9,12.1,26.9,26.9v42.8
				C198.1,208,186.1,220,171.2,220z M171.2,140.2c-5.6,0-10.2,4.6-10.2,10.2v42.8c0,5.6,4.6,10.2,10.2,10.2
				c5.6,0,10.2-4.6,10.2-10.2v-42.8C181.5,144.8,176.9,140.2,171.2,140.2z"/>
		</g>
	</g>
</g>
</svg>
