<?xml version="1.0" encoding="utf-8"?>
<!-- Generator: Adobe Illustrator 19.2.0, SVG Export Plug-In . SVG Version: 6.00 Build 0)  -->
<svg version="1.1" id="Camada_1" xmlns="http://www.w3.org/2000/svg" xmlns:xlink="http://www.w3.org/1999/xlink" x="0px" y="0px"
	 viewBox="0 0 474.7 90.4" style="enable-background:new 0 0 474.7 90.4;" xml:space="preserve">
<style type="text/css">
	.st0{fill:#FFFFFF;}
	.st1{fill:#AAC165;}
	.st2{font-family:'AvenirNext-Regular';}
	.st3{font-size:27.0675px;}
</style>
<g id="Camada_5">
</g>
<g id="linha">
	<rect x="5.2" y="71.4" class="st0" width="343.1" height="6.7"/>
</g>
<path class="st1" d="M6.2,11.1h6.3v45.2H6.2V11.1z"/>
<path class="st1" d="M54,11.1v5.5H39.8v39.7h-6.3V16.6H19.2v-5.5H54z"/>
<path class="st0" d="M76.4,56.3h-7.7V21.1c0-2.9,0.8-5.2,2.5-6.9c1.7-1.8,4.2-2.6,7.6-2.6c3,0,5.4,0.7,6.9,2.2
	c1.6,1.5,2.8,3.4,3.8,6l12.9,28.1c0.3,0.5,0.6,1,1,1.3s1,0.5,1.8,0.5s1.5-0.2,1.9-0.7c0.5-0.5,0.7-1.1,0.7-1.8V12.3h7.8v35.2
	c0,2.9-0.8,5.3-2.5,7c-1.7,1.8-4.2,2.6-7.6,2.6c-1.5,0-2.9-0.2-4-0.6c-1.2-0.4-2.2-0.9-3-1.6s-1.6-1.6-2.2-2.6
	c-0.6-1-1.1-2.1-1.6-3.4L81.8,20.8c-0.6-1.3-1.5-1.9-2.7-1.9c-0.9,0-1.5,0.2-2,0.7s-0.7,1.1-0.7,1.9V56.3z"/>
<path class="st0" d="M148.2,21.8c4.1,0,7,0.9,8.9,2.8c1.8,1.8,2.7,4.4,2.7,7.8c0,3.2-0.9,5.6-2.7,7.3c-1.8,1.7-4.8,2.6-9,2.6h-16.4
	v2.5c0,1.4,0.4,2.5,1.2,3.4s2.2,1.3,4.1,1.3h21.1v6.7H137c-2.2,0-4-0.3-5.5-0.8c-1.5-0.6-2.7-1.4-3.7-2.4s-1.7-2.2-2.1-3.6
	c-0.4-1.4-0.7-2.9-0.7-4.5V33.2c0-1.6,0.2-3.1,0.7-4.5c0.4-1.4,1.1-2.6,2.1-3.6s2.2-1.8,3.7-2.4s3.3-0.8,5.5-0.8L148.2,21.8
	L148.2,21.8z M131.7,36.9h16.2c1.9,0,3.2-0.4,3.9-1.1c0.8-0.7,1.1-1.7,1.1-3c0-1.3-0.4-2.3-1.2-3.1c-0.8-0.8-2-1.2-3.7-1.2h-11.1
	c-1.9,0-3.3,0.5-4.1,1.4s-1.2,2-1.2,3.4v3.6H131.7z"/>
<path class="st0" d="M169.5,21.8v-8.2h7v8.2h9.5v6.7h-9.5v16.3c0,2,0.4,3.3,1.1,4c0.7,0.7,1.9,1.1,3.6,1.1h4.8v6.3h-6.2
	c-1.8,0-3.3-0.2-4.6-0.6s-2.3-1-3.2-2c-0.8-0.9-1.4-2.1-1.8-3.7c-0.4-1.5-0.6-3.4-0.6-5.7V28.5h-4.7v-6.7
	C164.9,21.8,169.5,21.8,169.5,21.8z"/>
<path class="st0" d="M198.5,21.8l3.1,26.9c0.1,0.7,0.3,1.3,0.7,1.7c0.4,0.4,1,0.6,1.8,0.6s1.4-0.2,1.7-0.5c0.4-0.3,0.6-0.8,0.8-1.4
	l4.9-20.9c0.5-2.3,1.5-4,3.1-5.2c1.5-1.2,3.7-1.8,6.4-1.8c2.7,0,4.8,0.6,6.3,1.8c1.4,1.2,2.4,2.9,2.9,5.2l4.6,20.9
	c0.3,1.3,1.1,1.9,2.6,1.9c0.8,0,1.3-0.2,1.7-0.6c0.3-0.4,0.6-0.9,0.7-1.7l3.6-26.9h7.5l-3.8,27.3c-0.3,2.4-1.3,4.3-2.7,5.8
	c-1.5,1.5-3.8,2.2-6.9,2.2c-2.7,0-4.8-0.6-6.3-1.8c-1.5-1.2-2.5-3-3-5.4L223.7,29c-0.1-0.6-0.4-1-0.9-1.3s-1-0.4-1.7-0.4
	c-1.4,0-2.3,0.6-2.5,1.7l-4.9,20.9c-0.6,2.4-1.6,4.2-3.1,5.4c-1.5,1.2-3.7,1.8-6.4,1.8c-1.6,0-3-0.2-4.1-0.6s-2-0.9-2.7-1.6
	s-1.3-1.5-1.7-2.5c-0.4-1-0.7-2.1-0.8-3.2l-3.6-27.3h7.3V21.8z"/>
<path class="st0" d="M278.4,21.8c4.6,0,8.2,1.4,10.9,4.3c2.7,2.8,4,7.2,4,13s-1.3,10.2-4,13s-6.3,4.2-10.9,4.2h-7.2
	c-4.6,0-8.3-1.4-10.9-4.2c-2.7-2.8-4-7.2-4-13s1.3-10.2,4-13s6.3-4.2,10.9-4.2h7.2V21.8z M271.8,28.5c-3,0-5.2,0.8-6.6,2.5
	c-1.4,1.7-2.1,4.3-2.1,8.1c0,3.7,0.7,6.4,2.1,8.1c1.4,1.6,3.6,2.4,6.6,2.4h5.9c3,0,5.2-0.8,6.6-2.4s2.1-4.3,2.1-8.1
	c0-3.7-0.7-6.4-2.1-8.1c-1.4-1.7-3.6-2.5-6.6-2.5H271.8z"/>
<path class="st0" d="M325,21.8v6.7h-12.1c-3,0-4.4,1.5-4.4,4.4v23.4h-6.9V31.9c0-3.5,0.7-6,2.1-7.6s3.8-2.4,7.2-2.4H325V21.8z"/>
<path class="st0" d="M338.8,6.9v29.2h3.2c1.3,0,2.5,0,3.4-0.1s1.6-0.2,2.3-0.5c0.6-0.3,1.1-0.7,1.6-1.2c0.4-0.5,0.9-1.2,1.4-2.2
	l5.7-10.4h7.5l-6,10.8c-0.9,1.5-1.8,2.8-2.7,3.8c-0.9,1-2.1,1.8-3.5,2.4c1.7,0.5,3,1.3,4,2.3c1,1.1,2,2.5,3.1,4.3l6.2,10.8h-7.8
	l-5.7-10.2c-0.5-0.9-1-1.6-1.5-2.2c-0.5-0.5-1.1-1-1.7-1.2c-0.7-0.3-1.5-0.5-2.5-0.6s-2.2-0.2-3.8-0.2h-3.2v14.4h-6.9V6.9H338.8z"/>
<path class="st0" d="M378,8.9v8h-7v-8H378z M378,21.8v34.4h-6.9V21.8H378z"/>
<path class="st0" d="M406.9,21.8c5.9,0,10.2,1.3,13.1,3.9c2.8,2.6,4.3,6.3,4.3,11.1v19.4h-7V36.9c0-2.7-0.8-4.8-2.4-6.3
	c-1.6-1.4-4.3-2.2-7.9-2.2h-11.3c-0.6,0-0.8,0.3-0.8,1v26.8h-6.9v-29c0-2,0.4-3.4,1.1-4.2c0.7-0.8,2-1.1,3.7-1.1h14.1V21.8z"/>
<path class="st0" d="M456.9,21.8c4.1,0,7.3,1.2,9.4,3.6s3.2,6.1,3.2,11.1v27.8c0,2.4-0.2,4.5-0.7,6.3c-0.5,1.7-1.2,3.2-2.2,4.2
	c-1,1.1-2.4,1.9-4,2.4c-1.7,0.5-3.7,0.8-6.1,0.8H424v-6.7h31.7c2.6,0,4.3-0.5,5.3-1.6s1.5-2.9,1.5-5.4v-9.6h-15.2
	c-4.6,0-8.3-1.4-10.9-4.1c-2.7-2.7-4-6.9-4-12.5s1.3-9.7,4-12.4c2.7-2.7,6.3-4,10.9-4L456.9,21.8L456.9,21.8z M439.4,38.5
	c0,3.5,0.7,6.1,2.1,7.7c1.4,1.6,3.6,2.4,6.6,2.4h14.5V36.5c0-2.8-0.6-4.9-1.8-6.1c-1.2-1.3-3.2-1.9-5.9-1.9H448
	c-3,0-5.2,0.8-6.6,2.4C440.1,32.5,439.4,35,439.4,38.5z"/>
<g id="brasil">
	<text transform="matrix(1 0 0 1 352.1479 83.5085)" class="st1 st2 st3">B</text>
	<text transform="matrix(1 0 0 1 369.3629 83.5085)" class="st1 st2 st3">r</text>
	<text transform="matrix(1 0 0 1 378.7818 83.5085)" class="st1 st2 st3">a</text>
	<text transform="matrix(1 0 0 1 393.2359 83.5085)" class="st1 st2 st3">z</text>
	<text transform="matrix(1 0 0 1 405.1988 83.5085)" class="st1 st2 st3">i</text>
	<text transform="matrix(1 0 0 1 411.9664 83.5085)" class="st1 st2 st3">l</text>
</g>
</svg>
