<?xml version="1.0" encoding="utf-8"?>
<!-- Generator: Adobe Illustrator 19.2.0, SVG Export Plug-In . SVG Version: 6.00 Build 0)  -->
<svg version="1.1" id="Camada_8" xmlns="http://www.w3.org/2000/svg" xmlns:xlink="http://www.w3.org/1999/xlink" x="0px" y="0px"
	 viewBox="0 0 55 43.3" style="enable-background:new 0 0 55 43.3;" xml:space="preserve">
<style type="text/css">
	.st0{fill:#AAC165;}
	.st1{fill:#FFFFFF;}
	.st2{font-family:'AvenirNext-Regular';}
	.st3{font-size:12.9135px;}
</style>
<path class="st0" d="M4,2.9h3v21.6H4V2.9z"/>
<path class="st0" d="M26.8,2.9v2.6H20v19h-3v-19h-6.8V2.9H26.8z"/>
<path class="st1" d="M33.2,24.4h-3.7V7.6c0-1.4,0.4-2.5,1.2-3.3s2-1.3,3.6-1.3c1.5,0,2.6,0.3,3.3,1c0.8,0.7,1.4,1.6,1.8,2.8
	l6.1,13.4c0.1,0.2,0.3,0.5,0.5,0.6c0.2,0.2,0.5,0.2,0.8,0.2c0.4,0,0.7-0.1,0.9-0.3c0.2-0.2,0.3-0.5,0.3-0.9V3.4h3.7v16.8
	c0,1.4-0.4,2.5-1.2,3.3s-2,1.3-3.6,1.3c-0.7,0-1.4-0.1-1.9-0.3c-0.6-0.2-1-0.4-1.4-0.8c-0.4-0.3-0.8-0.8-1-1.2
	c-0.3-0.5-0.5-1-0.7-1.6L35.8,7.5c-0.3-0.6-0.7-0.9-1.3-0.9c-0.4,0-0.7,0.1-0.9,0.3s-0.3,0.5-0.3,0.9L33.2,24.4
	C33.3,24.4,33.2,24.4,33.2,24.4z"/>
<text transform="matrix(1 0 0 1 11.147 40.4188)" class="st0 st2 st3">B</text>
<text transform="matrix(1 0 0 1 19.3599 40.4188)" class="st0 st2 st3">r</text>
<text transform="matrix(1 0 0 1 23.8535 40.4188)" class="st0 st2 st3">a</text>
<text transform="matrix(1 0 0 1 30.749 40.4188)" class="st0 st2 st3">z</text>
<text transform="matrix(1 0 0 1 36.457 40.4188)" class="st0 st2 st3">i</text>
<text transform="matrix(1 0 0 1 39.685 40.4188)" class="st0 st2 st3">l</text>
</svg>
